<mxfile host="app.diagrams.net" modified="2024-05-07T16:54:02.962Z" agent="Mozilla/5.0 (Windows NT 10.0; Win64; x64) AppleWebKit/537.36 (KHTML, like Gecko) Chrome/124.0.0.0 Safari/537.36" etag="x-SXtUsdE35kWvQJ9KUK" version="24.3.1" type="device">
  <diagram id="R2lEEEUBdFMjLlhIrx00" name="Page-1">
    <mxGraphModel dx="1105" dy="595" grid="1" gridSize="10" guides="1" tooltips="1" connect="1" arrows="1" fold="1" page="1" pageScale="1" pageWidth="850" pageHeight="1100" math="0" shadow="0" extFonts="Permanent Marker^https://fonts.googleapis.com/css?family=Permanent+Marker">
      <root>
        <mxCell id="0" />
        <mxCell id="1" parent="0" />
        <mxCell id="lJdRxpadsHXl-xOhcxw1-2" value="" style="ellipse;whiteSpace=wrap;html=1;fontSize=18;strokeColor=default;fontFamily=Times New Roman;verticalAlign=middle;" vertex="1" parent="1">
          <mxGeometry x="368" y="100" width="135" height="50" as="geometry" />
        </mxCell>
        <mxCell id="lJdRxpadsHXl-xOhcxw1-3" value="CUNPO1" style="ellipse;whiteSpace=wrap;html=1;fontSize=18;fontFamily=Times New Roman;" vertex="1" parent="1">
          <mxGeometry x="368" y="20" width="135" height="50" as="geometry" />
        </mxCell>
        <mxCell id="lJdRxpadsHXl-xOhcxw1-4" value="" style="endArrow=none;html=1;rounded=0;entryX=0.5;entryY=1;entryDx=0;entryDy=0;exitX=0.5;exitY=0;exitDx=0;exitDy=0;fontSize=18;fontFamily=Times New Roman;" edge="1" parent="1" source="lJdRxpadsHXl-xOhcxw1-2" target="lJdRxpadsHXl-xOhcxw1-3">
          <mxGeometry width="50" height="50" relative="1" as="geometry">
            <mxPoint x="410" y="240" as="sourcePoint" />
            <mxPoint x="450" y="200" as="targetPoint" />
          </mxGeometry>
        </mxCell>
        <mxCell id="lJdRxpadsHXl-xOhcxw1-6" value="&lt;font style=&quot;font-size: 18px;&quot;&gt;targy&lt;/font&gt;" style="ellipse;whiteSpace=wrap;html=1;fontSize=18;fontFamily=Times New Roman;" vertex="1" parent="1">
          <mxGeometry x="10" y="200" width="135" height="50" as="geometry" />
        </mxCell>
        <mxCell id="lJdRxpadsHXl-xOhcxw1-7" value="oktato" style="ellipse;whiteSpace=wrap;html=1;fontSize=18;fontFamily=Times New Roman;" vertex="1" parent="1">
          <mxGeometry x="538" y="200" width="135" height="50" as="geometry" />
        </mxCell>
        <mxCell id="lJdRxpadsHXl-xOhcxw1-8" value="idopont" style="ellipse;whiteSpace=wrap;html=1;fontSize=18;fontFamily=Times New Roman;" vertex="1" parent="1">
          <mxGeometry x="368" y="200" width="135" height="50" as="geometry" />
        </mxCell>
        <mxCell id="lJdRxpadsHXl-xOhcxw1-10" value="helyszin" style="ellipse;whiteSpace=wrap;html=1;fontSize=18;fontFamily=Times New Roman;" vertex="1" parent="1">
          <mxGeometry x="191" y="200" width="135" height="50" as="geometry" />
        </mxCell>
        <mxCell id="lJdRxpadsHXl-xOhcxw1-11" value="szak" style="ellipse;whiteSpace=wrap;html=1;fontSize=18;fontFamily=Times New Roman;" vertex="1" parent="1">
          <mxGeometry x="700" y="200" width="135" height="50" as="geometry" />
        </mxCell>
        <mxCell id="lJdRxpadsHXl-xOhcxw1-12" value="nap" style="ellipse;whiteSpace=wrap;html=1;fontSize=18;fontFamily=Times New Roman;" vertex="1" parent="1">
          <mxGeometry x="191" y="406" width="135" height="50" as="geometry" />
        </mxCell>
        <mxCell id="lJdRxpadsHXl-xOhcxw1-13" value="tol" style="ellipse;whiteSpace=wrap;html=1;fontSize=18;fontFamily=Times New Roman;" vertex="1" parent="1">
          <mxGeometry x="368" y="406" width="135" height="50" as="geometry" />
        </mxCell>
        <mxCell id="lJdRxpadsHXl-xOhcxw1-14" value="ig" style="ellipse;whiteSpace=wrap;html=1;fontSize=18;fontFamily=Times New Roman;" vertex="1" parent="1">
          <mxGeometry x="538" y="406" width="135" height="50" as="geometry" />
        </mxCell>
        <mxCell id="lJdRxpadsHXl-xOhcxw1-15" value="" style="endArrow=none;html=1;rounded=0;exitX=0.5;exitY=0;exitDx=0;exitDy=0;entryX=0.5;entryY=1;entryDx=0;entryDy=0;fontSize=18;fontFamily=Times New Roman;" edge="1" parent="1" source="lJdRxpadsHXl-xOhcxw1-6" target="lJdRxpadsHXl-xOhcxw1-2">
          <mxGeometry width="50" height="50" relative="1" as="geometry">
            <mxPoint x="400" y="250" as="sourcePoint" />
            <mxPoint x="450" y="200" as="targetPoint" />
          </mxGeometry>
        </mxCell>
        <mxCell id="lJdRxpadsHXl-xOhcxw1-16" value="" style="endArrow=none;html=1;rounded=0;exitX=0.5;exitY=0;exitDx=0;exitDy=0;fontSize=18;entryX=0.5;entryY=1;entryDx=0;entryDy=0;fontFamily=Times New Roman;" edge="1" parent="1" source="lJdRxpadsHXl-xOhcxw1-10" target="lJdRxpadsHXl-xOhcxw1-2">
          <mxGeometry width="50" height="50" relative="1" as="geometry">
            <mxPoint x="98" y="210" as="sourcePoint" />
            <mxPoint x="440" y="150" as="targetPoint" />
          </mxGeometry>
        </mxCell>
        <mxCell id="lJdRxpadsHXl-xOhcxw1-18" value="" style="endArrow=none;html=1;rounded=0;exitX=0.5;exitY=0;exitDx=0;exitDy=0;entryX=0.5;entryY=1;entryDx=0;entryDy=0;fontSize=18;fontFamily=Times New Roman;" edge="1" parent="1" source="lJdRxpadsHXl-xOhcxw1-7" target="lJdRxpadsHXl-xOhcxw1-2">
          <mxGeometry width="50" height="50" relative="1" as="geometry">
            <mxPoint x="269" y="210" as="sourcePoint" />
            <mxPoint x="450" y="160" as="targetPoint" />
          </mxGeometry>
        </mxCell>
        <mxCell id="lJdRxpadsHXl-xOhcxw1-20" value="" style="endArrow=none;html=1;rounded=0;exitX=0.5;exitY=0;exitDx=0;exitDy=0;entryX=0.5;entryY=1;entryDx=0;entryDy=0;fontSize=18;fontFamily=Times New Roman;" edge="1" parent="1" source="lJdRxpadsHXl-xOhcxw1-13" target="lJdRxpadsHXl-xOhcxw1-8">
          <mxGeometry width="50" height="50" relative="1" as="geometry">
            <mxPoint x="626" y="220" as="sourcePoint" />
            <mxPoint x="456" y="170" as="targetPoint" />
          </mxGeometry>
        </mxCell>
        <mxCell id="lJdRxpadsHXl-xOhcxw1-21" value="" style="endArrow=none;html=1;rounded=0;exitX=0.5;exitY=0;exitDx=0;exitDy=0;entryX=0.5;entryY=1;entryDx=0;entryDy=0;fontSize=18;fontFamily=Times New Roman;" edge="1" parent="1" source="lJdRxpadsHXl-xOhcxw1-14" target="lJdRxpadsHXl-xOhcxw1-8">
          <mxGeometry width="50" height="50" relative="1" as="geometry">
            <mxPoint x="636" y="230" as="sourcePoint" />
            <mxPoint x="466" y="180" as="targetPoint" />
          </mxGeometry>
        </mxCell>
        <mxCell id="lJdRxpadsHXl-xOhcxw1-22" value="" style="endArrow=none;html=1;rounded=0;exitX=0.5;exitY=0;exitDx=0;exitDy=0;entryX=0.5;entryY=1;entryDx=0;entryDy=0;fontSize=18;fontFamily=Times New Roman;" edge="1" parent="1" source="lJdRxpadsHXl-xOhcxw1-12" target="lJdRxpadsHXl-xOhcxw1-8">
          <mxGeometry width="50" height="50" relative="1" as="geometry">
            <mxPoint x="646" y="240" as="sourcePoint" />
            <mxPoint x="476" y="190" as="targetPoint" />
          </mxGeometry>
        </mxCell>
        <mxCell id="lJdRxpadsHXl-xOhcxw1-24" value="" style="rounded=0;whiteSpace=wrap;html=1;direction=south;fontFamily=Times New Roman;" vertex="1" parent="1">
          <mxGeometry x="61.25" y="290" width="32.5" height="50" as="geometry" />
        </mxCell>
        <mxCell id="lJdRxpadsHXl-xOhcxw1-25" value="" style="rounded=0;whiteSpace=wrap;html=1;direction=south;fontFamily=Times New Roman;" vertex="1" parent="1">
          <mxGeometry x="242.25" y="290" width="32.5" height="50" as="geometry" />
        </mxCell>
        <mxCell id="lJdRxpadsHXl-xOhcxw1-26" value="" style="rounded=0;whiteSpace=wrap;html=1;direction=south;fontFamily=Times New Roman;" vertex="1" parent="1">
          <mxGeometry x="589.25" y="290" width="32.5" height="50" as="geometry" />
        </mxCell>
        <mxCell id="lJdRxpadsHXl-xOhcxw1-27" value="" style="rounded=0;whiteSpace=wrap;html=1;direction=south;fontFamily=Times New Roman;" vertex="1" parent="1">
          <mxGeometry x="751.25" y="290" width="32.5" height="50" as="geometry" />
        </mxCell>
        <mxCell id="lJdRxpadsHXl-xOhcxw1-28" value="" style="endArrow=none;html=1;rounded=0;exitX=0;exitY=0.5;exitDx=0;exitDy=0;entryX=0.5;entryY=1;entryDx=0;entryDy=0;fontFamily=Times New Roman;" edge="1" parent="1" source="lJdRxpadsHXl-xOhcxw1-24" target="lJdRxpadsHXl-xOhcxw1-6">
          <mxGeometry width="50" height="50" relative="1" as="geometry">
            <mxPoint x="400" y="260" as="sourcePoint" />
            <mxPoint x="450" y="210" as="targetPoint" />
          </mxGeometry>
        </mxCell>
        <mxCell id="lJdRxpadsHXl-xOhcxw1-29" value="&lt;u&gt;&lt;font style=&quot;font-size: 14px;&quot;&gt;id&lt;/font&gt;&lt;/u&gt;" style="rhombus;whiteSpace=wrap;html=1;fontFamily=Times New Roman;" vertex="1" parent="1">
          <mxGeometry x="550" y="100" width="50" height="50" as="geometry" />
        </mxCell>
        <mxCell id="lJdRxpadsHXl-xOhcxw1-30" value="" style="endArrow=none;html=1;rounded=0;entryX=0;entryY=0.5;entryDx=0;entryDy=0;exitX=1;exitY=0.5;exitDx=0;exitDy=0;fontFamily=Times New Roman;" edge="1" parent="1" source="lJdRxpadsHXl-xOhcxw1-2" target="lJdRxpadsHXl-xOhcxw1-29">
          <mxGeometry width="50" height="50" relative="1" as="geometry">
            <mxPoint x="400" y="280" as="sourcePoint" />
            <mxPoint x="450" y="230" as="targetPoint" />
          </mxGeometry>
        </mxCell>
        <mxCell id="lJdRxpadsHXl-xOhcxw1-31" value="" style="endArrow=none;html=1;rounded=0;exitX=0.5;exitY=0;exitDx=0;exitDy=0;entryX=0.5;entryY=1;entryDx=0;entryDy=0;fontFamily=Times New Roman;" edge="1" parent="1" source="lJdRxpadsHXl-xOhcxw1-11" target="lJdRxpadsHXl-xOhcxw1-2">
          <mxGeometry width="50" height="50" relative="1" as="geometry">
            <mxPoint x="400" y="280" as="sourcePoint" />
            <mxPoint x="440" y="140" as="targetPoint" />
          </mxGeometry>
        </mxCell>
        <mxCell id="lJdRxpadsHXl-xOhcxw1-32" value="" style="endArrow=none;html=1;rounded=0;entryX=0.5;entryY=0;entryDx=0;entryDy=0;exitX=0.5;exitY=1;exitDx=0;exitDy=0;fontFamily=Times New Roman;" edge="1" parent="1" source="lJdRxpadsHXl-xOhcxw1-2" target="lJdRxpadsHXl-xOhcxw1-8">
          <mxGeometry width="50" height="50" relative="1" as="geometry">
            <mxPoint x="440" y="150" as="sourcePoint" />
            <mxPoint x="450" y="230" as="targetPoint" />
          </mxGeometry>
        </mxCell>
        <mxCell id="lJdRxpadsHXl-xOhcxw1-33" value="" style="endArrow=none;html=1;rounded=0;exitX=0;exitY=0.5;exitDx=0;exitDy=0;entryX=0.5;entryY=1;entryDx=0;entryDy=0;fontFamily=Times New Roman;" edge="1" parent="1" source="lJdRxpadsHXl-xOhcxw1-25" target="lJdRxpadsHXl-xOhcxw1-10">
          <mxGeometry width="50" height="50" relative="1" as="geometry">
            <mxPoint x="370" y="280" as="sourcePoint" />
            <mxPoint x="420" y="230" as="targetPoint" />
          </mxGeometry>
        </mxCell>
        <mxCell id="lJdRxpadsHXl-xOhcxw1-34" value="" style="endArrow=none;html=1;rounded=0;exitX=0;exitY=0.5;exitDx=0;exitDy=0;entryX=0.5;entryY=1;entryDx=0;entryDy=0;fontFamily=Times New Roman;" edge="1" parent="1" source="lJdRxpadsHXl-xOhcxw1-26" target="lJdRxpadsHXl-xOhcxw1-7">
          <mxGeometry width="50" height="50" relative="1" as="geometry">
            <mxPoint x="370" y="280" as="sourcePoint" />
            <mxPoint x="420" y="230" as="targetPoint" />
          </mxGeometry>
        </mxCell>
        <mxCell id="lJdRxpadsHXl-xOhcxw1-36" value="" style="endArrow=none;html=1;rounded=0;entryX=0.5;entryY=1;entryDx=0;entryDy=0;exitX=0;exitY=0.5;exitDx=0;exitDy=0;fontFamily=Times New Roman;" edge="1" parent="1" source="lJdRxpadsHXl-xOhcxw1-27" target="lJdRxpadsHXl-xOhcxw1-11">
          <mxGeometry width="50" height="50" relative="1" as="geometry">
            <mxPoint x="370" y="280" as="sourcePoint" />
            <mxPoint x="420" y="230" as="targetPoint" />
          </mxGeometry>
        </mxCell>
        <mxCell id="lJdRxpadsHXl-xOhcxw1-97" value="ora" style="ellipse;whiteSpace=wrap;html=1;fontSize=18;strokeColor=default;fontFamily=Times New Roman;verticalAlign=middle;" vertex="1" parent="1">
          <mxGeometry x="381.5" y="105" width="108" height="40" as="geometry" />
        </mxCell>
        <mxCell id="lJdRxpadsHXl-xOhcxw1-105" value="&lt;font style=&quot;font-size: 14px;&quot;&gt;tipus&lt;/font&gt;" style="rhombus;whiteSpace=wrap;html=1;fontFamily=Times New Roman;" vertex="1" parent="1">
          <mxGeometry x="269.75" y="100" width="50" height="50" as="geometry" />
        </mxCell>
        <mxCell id="lJdRxpadsHXl-xOhcxw1-107" value="" style="endArrow=none;html=1;rounded=0;entryX=0;entryY=0.5;entryDx=0;entryDy=0;exitX=1;exitY=0.5;exitDx=0;exitDy=0;fontFamily=Times New Roman;" edge="1" parent="1" source="lJdRxpadsHXl-xOhcxw1-105" target="lJdRxpadsHXl-xOhcxw1-2">
          <mxGeometry width="50" height="50" relative="1" as="geometry">
            <mxPoint x="321" y="124.58" as="sourcePoint" />
            <mxPoint x="368" y="124.58" as="targetPoint" />
          </mxGeometry>
        </mxCell>
        <mxCell id="lJdRxpadsHXl-xOhcxw1-110" value="" style="rounded=0;whiteSpace=wrap;html=1;direction=south;fontFamily=Times New Roman;" vertex="1" parent="1">
          <mxGeometry x="242.25" y="496" width="32.5" height="50" as="geometry" />
        </mxCell>
        <mxCell id="lJdRxpadsHXl-xOhcxw1-111" value="" style="endArrow=none;html=1;rounded=0;exitX=0;exitY=0.5;exitDx=0;exitDy=0;entryX=0.5;entryY=1;entryDx=0;entryDy=0;fontFamily=Times New Roman;" edge="1" parent="1" source="lJdRxpadsHXl-xOhcxw1-110" target="lJdRxpadsHXl-xOhcxw1-12">
          <mxGeometry width="50" height="50" relative="1" as="geometry">
            <mxPoint x="581" y="466" as="sourcePoint" />
            <mxPoint x="259" y="456" as="targetPoint" />
          </mxGeometry>
        </mxCell>
        <mxCell id="lJdRxpadsHXl-xOhcxw1-112" value="" style="rounded=0;whiteSpace=wrap;html=1;direction=south;fontFamily=Times New Roman;" vertex="1" parent="1">
          <mxGeometry x="419.25" y="496" width="32.5" height="50" as="geometry" />
        </mxCell>
        <mxCell id="lJdRxpadsHXl-xOhcxw1-113" value="" style="endArrow=none;html=1;rounded=0;exitX=0;exitY=0.5;exitDx=0;exitDy=0;entryX=0.5;entryY=1;entryDx=0;entryDy=0;fontFamily=Times New Roman;" edge="1" parent="1" source="lJdRxpadsHXl-xOhcxw1-112" target="lJdRxpadsHXl-xOhcxw1-13">
          <mxGeometry width="50" height="50" relative="1" as="geometry">
            <mxPoint x="758" y="466" as="sourcePoint" />
            <mxPoint x="436" y="456" as="targetPoint" />
          </mxGeometry>
        </mxCell>
        <mxCell id="lJdRxpadsHXl-xOhcxw1-114" value="" style="rounded=0;whiteSpace=wrap;html=1;direction=south;fontFamily=Times New Roman;" vertex="1" parent="1">
          <mxGeometry x="589.25" y="496" width="32.5" height="50" as="geometry" />
        </mxCell>
        <mxCell id="lJdRxpadsHXl-xOhcxw1-115" value="" style="endArrow=none;html=1;rounded=0;exitX=0;exitY=0.5;exitDx=0;exitDy=0;entryX=0.5;entryY=1;entryDx=0;entryDy=0;fontFamily=Times New Roman;" edge="1" parent="1" source="lJdRxpadsHXl-xOhcxw1-114" target="lJdRxpadsHXl-xOhcxw1-14">
          <mxGeometry width="50" height="50" relative="1" as="geometry">
            <mxPoint x="928.75" y="466" as="sourcePoint" />
            <mxPoint x="606.75" y="456" as="targetPoint" />
          </mxGeometry>
        </mxCell>
      </root>
    </mxGraphModel>
  </diagram>
</mxfile>
